<?xml version="1.0" encoding="UTF-8"?>
<svg width="87px" height="294px" viewBox="0 0 87 294" version="1.1" xmlns="http://www.w3.org/2000/svg" xmlns:xlink="http://www.w3.org/1999/xlink">
    <!-- Generator: Sketch 51.3 (57544) - http://www.bohemiancoding.com/sketch -->
    <title>Boy</title>
    <desc>Created with Sketch.</desc>
    <defs></defs>
    <g id="Page-1" stroke="none" stroke-width="1" fill="none" fill-rule="evenodd">
        <g id="Landing-page" transform="translate(-1067.000000, -400.000000)">
            <g id="hero-image" transform="translate(612.000000, 320.000000)">
                <g id="Boy" transform="translate(455.000000, 71.000000)">
                    <g id="Group-3-Copy-2" transform="translate(41.686533, 33.016660) rotate(30.000000) translate(-41.686533, -33.016660) translate(20.686533, 7.016660)">
                        <polygon id="Path-3" fill="#F7B690" points="3.74206349 19.0357143 3.74206349 27.984127 5.85714286 30.2619048 4.23015873 38.3968254 6.3452381 38.3968254 7.9510311 40.9104901 10.6792237 40.3407264 9.21493803 41.8050121 10.6595999 42.9953071 12.2230274 46.800632 19.8097575 42.5372538 26.5849365 51.0464607 33.580127 48.1624861 41.1733938 40.3144099 33.0277778 19.0357143"></polygon>
                        <path d="M2.7340907,28.0757954 L3.83604197,32.924381" id="Path-6" stroke="#0F3250"></path>
                        <path d="M3.28207206,30.6701892 C12.4609683,26.8676375 17.0504164,24.9663616 17.0504164,24.9663616" id="Path-7" stroke="#0F3250"></path>
                        <path d="M24.3304452,29.1537342 L24.1065519,25.325001 L22.390275,22.858513 L19.8809887,23.1742046 L19.6045953,24.4809838 L19.1984127,24.0793651 L15.781746,28.6349206 L14.6428571,25.3809524 L5.69444444,22.7777778 L5.69444444,19.1984127 L3.57936508,20.1746032 L1.46428571,22.452381 L0.162698413,17.8968254 L0.813492063,14.3174603 L9.76190476,5.85714286 L24.8928571,0.162698413 L33.6785714,4.88095238 L38.234127,13.3412698 L41,37.4206349 L33.6785714,38.3968254 L24.3304452,29.1537342 Z" id="Path-2" fill="#2B1D2E"></path>
                    </g>
                    <path d="M66.5,288 L73.5,288 L73.5,293.5 L69.5,295.5 L66,291 L66.5,288 Z M38,291 L45,290 L45,296.5 L41.5,299 L37.5,294.5 L38,291 Z M75,120.5 L86,119.5 L86,122 L75,144 L75,120.5 Z" id="Combined-Shape" fill="#F7B690"></path>
                    <polygon id="Path-16" fill="#F8B133" points="21 160.5 21 180.5 28 226.5 37.5 291 47 291 47 245 46 230.5 42.5 225.75 44 181.5 49 176 50 166"></polygon>
                    <polygon id="Path-17" fill="#F29200" points="50 166 71 164.5 69 221.5 73 230 74 245.5 74 288 64 288 54.5 227 54.5 222.5 47.5 178"></polygon>
                    <polygon id="Path-13" fill="#0112DC" points="72.5 66.5 81.5 83.5 87 119.5 83.8095703 120.950195 79.75 122 75 122"></polygon>
                    <polygon id="Path-12" fill="#0043FE" points="26 63 34 57 53.5 55 72.5 66.5 76.5 138 72.5 164.5 51.25 166.5 20 160.5 17.5 117 20 81"></polygon>
                    <polygon id="Path-15" fill="#F7B690" points="14.5 118 10.5 133 3 151.5 0 161 0 168 4.5 174 7.25 177 9 175.5 6.5 170 5.5 166 6 164 7.25 164 8 166 8 168.5 9 168.5 10 165 10 162 8.5 159.5 8 157.5 9.5 153 18.5 138.5 27 124.5 27.5 121.5"></polygon>
                    <polygon id="Path-14" fill="#0112DC" points="26 63 33.5 74 33.5 103.5 28 121.5 21.5 123 15.5 121.5 13.5 117 15.5 98.5 17.5 74 21.5 65.5"></polygon>
                    <polygon id="Path-18" fill="#E43229" points="36 293 42 296.5 46 296.5 47 300 46 303 40.5 303 40.5 302 36 303 24.5 303 20 302 19 300 20 298 27 298"></polygon>
                    <polygon id="Path-19" fill="#E43229" points="66 291 71.5 293.5 74.5 293 75 296.5 74 299.5 70 299.5 69.5 298.5 68 299.5 56.5 299.5 54 298.5 53 296 54.5 295.25 58.5 295.25 64.5 291"></polygon>
                </g>
            </g>
        </g>
    </g>
</svg>