<?xml version="1.0" encoding="UTF-8"?>
<svg width="366px" height="239px" viewBox="0 0 366 239" version="1.1" xmlns="http://www.w3.org/2000/svg" xmlns:xlink="http://www.w3.org/1999/xlink">
    <!-- Generator: Sketch 51.3 (57544) - http://www.bohemiancoding.com/sketch -->
    <title>Fill 3</title>
    <desc>Created with Sketch.</desc>
    <defs></defs>
    <g id="Page-1" stroke="none" stroke-width="1" fill="none" fill-rule="evenodd">
        <g id="Artboard" transform="translate(-67.000000, -130.000000)" fill="#076473">
            <path d="M180.671911,203.432173 L180.671911,190.198031 L220.329923,190.198031 L220.329923,203.432173 L180.671911,203.432173 Z M260.352967,229.857431 L260.352967,216.623289 L300.010979,216.623289 L300.010979,229.857431 L260.352967,229.857431 Z M353.267194,130.730028 L340.033051,143.922532 L340.033051,243.090463 L326.880799,243.090463 L326.880799,150.538909 L313.648044,163.773051 L246.795848,163.773051 L233.966989,163.773051 L167.114792,163.773051 L154.285933,163.773051 L67.9885,163.773051 L67.9885,176.965554 L153.883426,176.965554 L153.883426,216.623566 L94.3735071,216.623566 L94.3735071,229.857708 L154.285933,229.857708 L154.285933,243.090463 L81.2212542,243.090463 L81.2212542,203.432451 L140.649284,203.432451 L140.649284,190.198309 L67.9885,190.198309 L67.9885,243.232034 L67.9885,256.282966 L67.9885,256.424537 L94.3735071,256.424537 L94.3735071,309.316691 L134.032907,309.316691 L134.032907,256.424537 L147.265661,256.424537 L147.265661,322.549446 L81.2212542,322.549446 L81.2212542,269.657292 L67.9885,269.657292 L67.9885,335.741949 L147.669556,335.741949 L160.499803,335.741949 L227.349224,335.741949 L240.583366,348.934453 L240.583366,282.890046 L253.735619,282.890046 L253.735619,355.55083 L266.969761,368.784972 L266.969761,335.741949 L333.86082,335.741949 L346.691067,335.741949 L426.372123,335.741949 L426.372123,269.657292 L360.245827,269.657292 L360.245827,282.890046 L413.137981,282.890046 L413.137981,322.549446 L346.691067,322.549446 L333.86082,322.549446 L267.412518,322.549446 L267.412518,256.424537 L333.456925,256.424537 L333.456925,296.083937 L280.564771,296.083937 L280.564771,309.316691 L333.86082,309.316691 L346.691067,309.316691 L399.905227,309.316691 L399.905227,296.083937 L347.093574,296.083937 L347.093574,256.424537 L426.372123,256.424537 L426.372123,256.282966 L432.9885,256.282966 L432.9885,243.090463 L353.711339,243.090463 L353.711339,190.198309 L353.267194,190.198309 L353.267194,176.965554 L419.754358,176.965554 L419.754358,229.857708 L432.9885,229.857708 L432.9885,163.773051 L353.267194,163.773051 L353.267194,130.730028 Z M246.795848,176.965554 L313.24415,176.965554 L313.24415,229.857708 L313.648044,229.857708 L313.648044,243.090463 L247.199743,243.090463 L247.199743,203.432451 L300.010008,203.432451 L300.010008,190.198309 L246.795848,190.198309 L246.795848,176.965554 Z M167.518687,176.965554 L233.564482,176.965554 L233.564482,216.623566 L180.672328,216.623566 L180.672328,229.857708 L233.966989,229.857708 L233.966989,243.090463 L167.518687,243.090463 L167.518687,176.965554 Z M107.607649,296.083937 L120.840403,296.083937 L120.840403,256.282966 L107.607649,256.282966 L107.607649,296.083937 Z M240.583366,269.65868 L253.735619,269.65868 L253.735619,256.424537 L240.583366,256.424537 L240.583366,269.65868 Z M160.903698,256.424537 L227.349224,256.424537 L227.349224,269.657292 L174.055951,269.657292 L174.055951,282.890046 L226.946717,282.890046 L226.946717,322.549446 L160.499803,322.549446 L160.499803,309.316691 L213.713963,309.316691 L213.713963,296.083937 L160.903698,296.083937 L160.903698,256.424537 Z M380.09593,216.623289 L393.328684,216.623289 L393.328684,203.432173 L380.09593,203.432173 L380.09593,216.623289 Z M366.863175,229.857431 L366.863175,190.198031 L406.521187,190.198031 L406.521187,229.857431 L366.863175,229.857431 Z M280.565742,282.889768 L280.565742,269.657014 L320.223754,269.657014 L320.223754,282.889768 L280.565742,282.889768 Z" id="Fill-3"></path>
        </g>
    </g>
</svg>