<?xml version="1.0" encoding="UTF-8"?>
<svg width="613px" height="346px" viewBox="0 0 613 346" version="1.1" xmlns="http://www.w3.org/2000/svg" xmlns:xlink="http://www.w3.org/1999/xlink">
    <!-- Generator: Sketch 51.3 (57544) - http://www.bohemiancoding.com/sketch -->
    <title>Mountain</title>
    <desc>Created with Sketch.</desc>
    <defs></defs>
    <g id="Page-1" stroke="none" stroke-width="1" fill="none" fill-rule="evenodd">
        <g id="Landing-page" transform="translate(-612.000000, -319.000000)">
            <g id="hero-image" transform="translate(612.000000, 320.000000)">
                <g id="Mountain">
                    <g id="mountain" transform="translate(0.000000, 26.000000)">
                        <polygon id="Path-11" fill="#EAF5F7" points="133 218.5 140.5 194.5 158.5 186 172.5 151 200.5 147.5 241 131 280.5 141.5 222 238.5"></polygon>
                        <polygon id="Path-10" fill="#CBE7EB" points="198.5 216.5 229 160 260 160 309.5 80.5 366.5 57 384 0.5 398.5 9 426 124 452.5 127.5 502.5 208.5 533.5 205.5 583 312"></polygon>
                        <polygon id="Path-9" fill="#AFD0D7" points="45 307 61.5 270.5 91.5 246.5 116 216.5 279.5 203 315 223 353 170.5 398 166 446 243 506.5 258.5 531 310"></polygon>
                        <polygon id="Path-8" fill="#54B087" points="0 319 26 307 158.5 286.5 201.5 292.5 286.5 276 316 283.5 382.5 276 451 297.5 534 297.5 596.5 311 612.5 319"></polygon>
                    </g>
                    <g id="route-and-goal" transform="translate(98.000000, 0.000000)">
                        <path d="M292.5,30 L287,43.5 L296.5,56.5 L287,66.5 L289.5,76 L302.5,88 L288.5,106.5 L260,113.5 L244,128.5 L247.5,140 L220,152 L208,147.5 L189,170 L203.5,184.5 L207,210.5 L187.5,232.5" id="Path-23" stroke="#DA332A" stroke-dasharray="5"></path>
                        <polygon id="Path-24" fill="#DA332A" points="292.5 3 311 10.5 292.5 17.5"></polygon>
                        <path d="M156.5,231 L132.5,241 L136.5,250.5 L99.5,261 L87,256.5 L59.5,267.5 L59.5,280 L65.5,285.5 L57.5,298 L19.5,306 L0,322" id="Path-25" stroke="#DA332A" stroke-dasharray="5"></path>
                        <path d="M292.5,30 L292.5,0" id="Path-26" stroke="#DA332A" stroke-linecap="round" stroke-linejoin="round"></path>
                    </g>
                    <g id="stars" transform="translate(186.000000, 20.000000)">
                        <path d="M407,216 C404.790861,216 403,214.209139 403,212 C403,209.790861 404.790861,208 407,208 C409.209139,208 411,209.790861 411,212 C411,214.209139 409.209139,216 407,216 Z M378.5,99 C374.910149,99 372,96.0898509 372,92.5 C372,88.9101491 374.910149,86 378.5,86 C382.089851,86 385,88.9101491 385,92.5 C385,96.0898509 382.089851,99 378.5,99 Z M87,58 C82.581722,58 79,54.418278 79,50 C79,45.581722 82.581722,42 87,42 C91.418278,42 95,45.581722 95,50 C95,54.418278 91.418278,58 87,58 Z" id="Combined-Shape" fill="#F8B133"></path>
                        <path d="M393.5,208 C388.253295,208 384,203.746705 384,198.5 C384,193.253295 388.253295,189 393.5,189 C398.746705,189 403,193.253295 403,198.5 C403,203.746705 398.746705,208 393.5,208 Z M248.5,22 C247.119288,22 246,20.8807119 246,19.5 C246,18.1192881 247.119288,17 248.5,17 C249.880712,17 251,18.1192881 251,19.5 C251,20.8807119 249.880712,22 248.5,22 Z M19.5,66 C17.5670034,66 16,64.4329966 16,62.5 C16,60.5670034 17.5670034,59 19.5,59 C21.4329966,59 23,60.5670034 23,62.5 C23,64.4329966 21.4329966,66 19.5,66 Z" id="Combined-Shape" fill="#E4352A"></path>
                        <path d="M263,43 L268,48 L263,53 L258,48 L263,43 Z M137,0 L142,5 L137,10 L132,5 L137,0 Z M5,109 C2.23857625,109 0,106.761424 0,104 C0,101.238576 2.23857625,99 5,99 C7.76142375,99 10,101.238576 10,104 C10,106.761424 7.76142375,109 5,109 Z" id="Combined-Shape" fill="#0342FF"></path>
                    </g>
                </g>
            </g>
        </g>
    </g>
</svg>