<?xml version="1.0" encoding="UTF-8"?>
<svg width="15px" height="26px" viewBox="0 0 15 26" version="1.1" xmlns="http://www.w3.org/2000/svg" xmlns:xlink="http://www.w3.org/1999/xlink">
    <!-- Generator: Sketch 51.3 (57544) - http://www.bohemiancoding.com/sketch -->
    <title>mouse</title>
    <desc>Created with Sketch.</desc>
    <defs></defs>
    <g id="Page-1" stroke="none" stroke-width="1" fill="none" fill-rule="evenodd" opacity="0.6">
        <g id="Landing-page" transform="translate(-676.000000, -721.000000)" fill="#323657" fill-rule="nonzero">
            <g id="mouse" transform="translate(676.000000, 721.000000)">
                <path d="M7.48021003,0 C3.3555593,0 0,3.3555593 0,7.48021003 L0,17.9502535 C0,22.0749043 3.3555593,25.4304636 7.48021003,25.4304636 C11.6048608,25.4304636 14.9604201,22.0749043 14.9604201,17.9502535 L14.9604201,7.48021003 C14.9604201,3.3555593 11.6048608,0 7.48021003,0 Z M13.4346544,17.9502535 C13.4346544,21.2334437 10.7634002,23.9046978 7.48021003,23.9046978 C4.19701987,23.9046978 1.52576573,21.2334437 1.52576573,17.9502535 L1.52576573,7.48021003 C1.52576573,4.19701987 4.19701987,1.52576573 7.48021003,1.52576573 C10.7634002,1.52576573 13.4346544,4.19701987 13.4346544,7.48021003 L13.4346544,17.9502535 Z" id="Shape"></path>
                <path d="M7.48040409,5.05885242 C7.05899474,5.05885242 6.71752123,5.40032593 6.71752123,5.82173533 L6.71752123,9.33309189 C6.71752123,9.75430724 7.05899474,10.0959748 7.48040409,10.0959748 C7.90161944,10.0959748 8.24328695,9.75430724 8.24328695,9.33309189 L8.24328695,5.82173533 C8.24328695,5.40032593 7.90181344,5.05885242 7.48040409,5.05885242 Z" id="Shape"></path>
            </g>
        </g>
    </g>
</svg>